# xmcd
#
# Track frame offsets: 
#        150
#        15081
#        29944
#        43396
#        53010
#        66703
#        81205
#        94514
#        110178
#        123857
#        138101
#        151342
#
# Disc length: 2200 seconds
#
# Revision: 0
# Processed by: cddbd v1.5.2PL0 Copyright (c) Steve Scherf et al.
# Submitted via: ExactAudioCopy v0.95a5
#
DISCID=a108960c
DTITLE=Billie Holiday - Best of Billie Holiday
DYEAR=2005
DGENRE=Blues
TTITLE0=Lover Man (Oh, Where Can You Be)
TTITLE1=Pennies from Heaven
TTITLE2=All of Me
TTITLE3=I'm Gonna Lock My Heart (And Throw Away the Key)
TTITLE4=The Way You Look Tonight
TTITLE5=Strange Fruit
TTITLE6=I've Got My Love to Keep Me Warm
TTITLE7=I Can't Give You Anything But Love
TTITLE8=Twenty-Four Hours a Day
TTITLE9=(This Is) My Last Affair
TTITLE10=Summertime
TTITLE11=Easy Living
EXTD=
EXTT0=
EXTT1=
EXTT2=
EXTT3=
EXTT4=
EXTT5=
EXTT6=
EXTT7=
EXTT8=
EXTT9=
EXTT10=
EXTT11=
PLAYORDER=
